<svg xmlns="http://www.w3.org/2000/svg" viewBox="0 0 100 100" width="100" height="100">
  <!-- Background circle -->
  <circle cx="50" cy="50" r="50" fill="#4A5568"/>
  
  <!-- Hard hat -->
  <path d="M30 35 C30 25 40 20 50 20 C60 20 70 25 70 35 L75 40 C75 30 65 15 50 15 C35 15 25 30 25 40 L30 35 Z" fill="#F6AD55"/>
  
  <!-- Face -->
  <circle cx="50" cy="45" r="18" fill="#F8D4B0"/>
  
  <!-- Eyes -->
  <ellipse cx="43" cy="42" rx="2" ry="1.5" fill="#2D3748"/>
  <ellipse cx="57" cy="42" rx="2" ry="1.5" fill="#2D3748"/>
  
  <!-- Eyebrows -->
  <path d="M40 39 Q43 37 46 39" fill="none" stroke="#4A5568" stroke-width="1.5"/>
  <path d="M54 39 Q57 37 60 39" fill="none" stroke="#4A5568" stroke-width="1.5"/>
  
  <!-- Nose -->
  <path d="M50 44 L48 48 L52 48" fill="#E9C0A0"/>
  
  <!-- Smile -->
  <path d="M43 52 Q50 56 57 52" fill="none" stroke="#2D3748" stroke-width="1.5"/>
  
  <!-- Beard stubble -->
  <path d="M43 56 Q50 60 57 56" fill="none" stroke="#4A5568" stroke-width="0.5" stroke-dasharray="1,1"/>
  
  <!-- Body -->
  <path d="M50 65 C30 65 20 80 20 100 L80 100 C80 80 70 65 50 65 Z" fill="#718096"/>
  
  <!-- Safety vest -->
  <path d="M40 65 L35 100 L65 100 L60 65 Z" fill="#F6AD55" opacity="0.9"/>
  
  <!-- Reflective strips -->
  <path d="M38 75 L62 75" stroke="#FFFFFF" stroke-width="2"/>
  <path d="M36 85 L64 85" stroke="#FFFFFF" stroke-width="2"/>
</svg>