<svg xmlns="http://www.w3.org/2000/svg" viewBox="0 0 100 100" width="100" height="100">
  <!-- Background circle -->
  <circle cx="50" cy="50" r="50" fill="#2D3748"/>
  
  <!-- Hard hat -->
  <path d="M30 35 C30 25 40 20 50 20 C60 20 70 25 70 35 L75 40 C75 30 65 15 50 15 C35 15 25 30 25 40 L30 35 Z" fill="#38B2AC"/>
  
  <!-- Hair -->
  <path d="M30 45 C30 35 40 25 50 25 C60 25 70 35 70 45" fill="#A0522D" stroke="#A0522D" stroke-width="1"/>
  
  <!-- Face -->
  <circle cx="50" cy="45" r="18" fill="#FFE0BD"/>
  
  <!-- Eyes -->
  <ellipse cx="43" cy="42" rx="2" ry="1.8" fill="#2D3748"/>
  <ellipse cx="57" cy="42" rx="2" ry="1.8" fill="#2D3748"/>
  
  <!-- Eyebrows -->
  <path d="M40 38 Q43 36 46 38" fill="none" stroke="#4A5568" stroke-width="1.2"/>
  <path d="M54 38 Q57 36 60 38" fill="none" stroke="#4A5568" stroke-width="1.2"/>
  
  <!-- Nose -->
  <path d="M50 44 L49 48 L51 48" fill="#EECEB3"/>
  
  <!-- Smile -->
  <path d="M43 52 Q50 56 57 52" fill="none" stroke="#2D3748" stroke-width="1.5"/>
  
  <!-- Body -->
  <path d="M50 65 C30 65 20 80 20 100 L80 100 C80 80 70 65 50 65 Z" fill="#718096"/>
  
  <!-- Safety vest -->
  <path d="M40 65 L35 100 L65 100 L60 65 Z" fill="#38B2AC" opacity="0.9"/>
  
  <!-- Reflective strips -->
  <path d="M38 75 L62 75" stroke="#FFFFFF" stroke-width="2"/>
  <path d="M36 85 L64 85" stroke="#FFFFFF" stroke-width="2"/>
</svg>